<?xml version="1.0" standalone="no"?><!DOCTYPE svg PUBLIC "-//W3C//DTD SVG 1.1//EN" "http://www.w3.org/Graphics/SVG/1.1/DTD/svg11.dtd"><svg t="1552452461914" class="icon" style="" viewBox="0 0 1024 1024" version="1.1" xmlns="http://www.w3.org/2000/svg" p-id="1171" data-spm-anchor-id="a313x.7781069.0.i6" xmlns:xlink="http://www.w3.org/1999/xlink" width="200" height="200"><defs><style type="text/css"></style></defs><path d="M512 923.733c-23.467 0-46.933-12.8-57.6-34.133l-93.867-136.533C352 738.133 337.067 729.6 317.867 729.6H136.533C74.667 729.6 25.6 678.4 25.6 618.667V243.2c0-61.867 51.2-110.933 110.933-110.933H889.6c61.867 0 110.933 51.2 110.933 110.933v375.467c0 61.866-51.2 110.933-110.933 110.933H710.4c-17.067 0-32 8.533-40.533 23.467l-2.134 2.133-96 134.4C556.8 913.067 535.467 923.733 512 923.733zM416 723.2l93.867 136.533s2.133 2.134 4.266 2.134 2.134-2.134 4.267-2.134l2.133-2.133 96-134.4c19.2-34.133 57.6-53.333 96-53.333h179.2c25.6 0 46.934-21.334 46.934-46.934V243.2c0-25.6-21.334-46.933-46.934-46.933h-755.2c-25.6 0-46.933 21.333-46.933 46.933v375.467c0 25.6 21.333 46.933 46.933 46.933H320c38.4 2.133 74.667 21.333 96 57.6z" fill="#fbb101" p-id="1172" data-spm-anchor-id="a313x.7781069.0.i7" class="selected"></path><path d="M243.2 433.067a53.333 53.333 0 1 0 106.667 0 53.333 53.333 0 1 0-106.667 0zM458.667 433.067a53.333 53.333 0 1 0 106.666 0 53.333 53.333 0 1 0-106.666 0zM674.133 433.067a53.333 53.333 0 1 0 106.667 0 53.333 53.333 0 1 0-106.667 0z" fill="#FFBB12" p-id="1173"></path></svg>